<?xml version="1.0" encoding="utf-8"?>
<!-- Generator: Adobe Illustrator 24.0.3, SVG Export Plug-In . SVG Version: 6.00 Build 0)  -->
<svg version="1.1" xmlns="http://www.w3.org/2000/svg" xmlns:xlink="http://www.w3.org/1999/xlink" x="0px" y="0px"
	 viewBox="0 0 155.99 160.34" style="enable-background:new 0 0 155.99 160.34;" xml:space="preserve">
<style type="text/css">
	.st0{display:none;}
	.st1{display:inline;}
	.st2{fill:#FFFFFF;}
</style>
<g id="Layer_1" class="st0">
	<g class="st1">
		<path class="st2" d="M178.63,167.56c-66.67,0-133.33,0-200,0c0-66.67,0-133.33,0-200c66.67,0,133.33,0,200,0
			C178.63,34.23,178.63,100.89,178.63,167.56z M127.44,84.51c4.32,0,8.06,0,11.88,0c0.28-2.05,0.52-3.8,0.92-6.66
			c2.88,1.44,6.3,2.02,7.38,3.93c2.29,4.04,5.17,2.99,8.38,2.68c-2.74-11.93-14.33-13.73-28.55-11.9
			C127.44,76.4,127.44,80.28,127.44,84.51z M70.75,28.18c4.08,0,8.15,0,12.07,0c0-4.2,0-7.79,0-11.54c-2-0.19-3.75-0.36-6.54-0.62
			c1.18-2.79,1.56-6.32,3.25-7.15c4.51-2.19,3.65-5.28,3.25-8.87C72.22,3.42,68.45,12.5,70.75,28.18z M20.99,25.74
			c-5,9.89-1.29,18.76,11.58,28.62c2.99-2.78,5.95-5.54,8.61-8.02c-2.91-3.18-5.53-6.06-8.16-8.93c-1.63,1.44-2.97,2.62-5.24,4.62
			c-1.04-3.12-2.98-5.86-2.47-8.03C26.32,29.74,23.94,28.07,20.99,25.74z M28.85,77.02c-4.13,0-7.99,0-11.92,0
			c-0.27,2.09-0.49,3.84-0.82,6.42c-2.7-1.24-5.97-1.68-7.12-3.47c-2.44-3.83-5.32-3.42-8.78-2.78
			c2.4,10.65,14.89,14.36,28.63,11.42C28.85,84.86,28.85,81.1,28.85,77.02z M12.26,134.12c10.52,4.53,18.58,1.14,29.04-11.82
			c-2.85-2.83-5.71-5.68-8.28-8.23c-3.05,2.69-5.95,5.25-8.88,7.84c1.55,1.74,2.75,3.08,4.71,5.28c-3.02,1.02-5.83,3.03-8.01,2.49
			C16.34,128.57,14.73,131.21,12.26,134.12z M114.9,38.96c2.96,3.05,5.69,5.87,8.7,8.99c2.73-3.03,5.33-5.93,8.07-8.98
			c-1.08-1.3-2.3-2.77-4.23-5.08c3.13-1,6.06-3.03,8.15-2.37c4.8,1.51,5.85-1.77,8.09-4.23C134.05,22.46,126.65,25.51,114.9,38.96z
			 M70.56,132.01c0,3.97,0,7.68,0,11.46c2.02,0.28,3.77,0.51,6.73,0.92c-1.36,2.87-1.87,6.38-3.72,7.35
			c-4.3,2.25-3.22,5.25-2.99,8.6c11.27-2.25,14.22-13.62,11.86-28.33C78.57,132.01,74.68,132.01,70.56,132.01z M135.4,135.57
			c4.69-10.38,1.05-18.89-11.39-28.31c-3.01,2.8-5.96,5.55-8.78,8.17c2.67,2.74,5.31,5.44,8.06,8.26c1.48-1.26,2.92-2.48,5.23-4.45
			c1.06,3.07,2.96,5.7,2.47,7.76C129.93,131.45,132.29,133.3,135.4,135.57z"/>
		<path d="M127.44,84.51c0-4.23,0-8.11,0-11.95c14.22-1.83,25.81-0.04,28.55,11.9c-3.21,0.31-6.09,1.36-8.38-2.68
			c-1.08-1.91-4.5-2.49-7.38-3.93c-0.39,2.86-0.64,4.61-0.92,6.66C135.5,84.51,131.76,84.51,127.44,84.51z"/>
		<path d="M70.75,28.18C68.45,12.5,72.22,3.42,82.79,0c0.4,3.59,1.25,6.68-3.25,8.87c-1.69,0.82-2.07,4.36-3.25,7.15
			c2.79,0.27,4.54,0.43,6.54,0.62c0,3.75,0,7.34,0,11.54C78.9,28.18,74.83,28.18,70.75,28.18z"/>
		<path d="M20.99,25.74c2.95,2.33,5.33,4,4.33,8.27c-0.51,2.17,1.43,4.91,2.47,8.03c2.27-2,3.61-3.18,5.24-4.62
			c2.63,2.88,5.25,5.75,8.16,8.93c-2.65,2.47-5.62,5.23-8.61,8.02C19.7,44.5,15.99,35.63,20.99,25.74z"/>
		<path d="M28.85,77.02c0,4.08,0,7.83,0,11.58C15.11,91.55,2.62,87.84,0.22,77.19c3.45-0.63,6.33-1.04,8.78,2.78
			c1.15,1.8,4.41,2.24,7.12,3.47c0.33-2.58,0.55-4.33,0.82-6.42C20.86,77.02,24.71,77.02,28.85,77.02z"/>
		<path d="M12.26,134.12c2.48-2.91,4.08-5.55,8.58-4.44c2.18,0.54,4.98-1.47,8.01-2.49c-1.96-2.2-3.16-3.54-4.71-5.28
			c2.93-2.59,5.83-5.15,8.88-7.84c2.57,2.55,5.43,5.4,8.28,8.23C30.83,135.25,22.78,138.65,12.26,134.12z"/>
		<path d="M114.9,38.96c11.75-13.45,19.15-16.5,28.78-11.67c-2.24,2.45-3.29,5.73-8.09,4.23c-2.09-0.66-5.02,1.38-8.15,2.37
			c1.92,2.31,3.15,3.79,4.23,5.08c-2.74,3.05-5.34,5.94-8.07,8.98C120.58,44.83,117.85,42.01,114.9,38.96z"/>
		<path d="M70.56,132.01c4.11,0,8,0,11.88,0c2.36,14.71-0.59,26.08-11.86,28.33c-0.23-3.34-1.31-6.34,2.99-8.6
			c1.85-0.97,2.36-4.48,3.72-7.35c-2.97-0.41-4.72-0.64-6.73-0.92C70.56,139.69,70.56,135.98,70.56,132.01z"/>
		<path d="M135.4,135.57c-3.11-2.27-5.48-4.12-4.41-8.56c0.49-2.06-1.41-4.7-2.47-7.76c-2.31,1.97-3.76,3.2-5.23,4.45
			c-2.75-2.82-5.38-5.52-8.06-8.26c2.82-2.62,5.77-5.37,8.78-8.17C136.45,116.67,140.1,125.19,135.4,135.57z"/>
	</g>
</g>
<g id="Layer_2">
	<g>
		<path d="M127.33,84.51c0-4.23,0-8.11,0-11.95c14.22-1.83,25.81-0.04,28.55,11.9c-3.21,0.31-6.09,1.36-8.38-2.68
			c-1.08-1.91-4.5-2.49-7.38-3.93c-0.39,2.86-0.64,4.61-0.92,6.66C135.39,84.51,131.65,84.51,127.33,84.51z"/>
		<path d="M70.64,28.18C68.34,12.5,72.11,3.42,82.68,0c0.4,3.59,1.25,6.68-3.25,8.87c-1.69,0.82-2.07,4.36-3.25,7.15
			c2.79,0.27,4.54,0.43,6.54,0.62c0,3.75,0,7.34,0,11.54C78.79,28.18,74.72,28.18,70.64,28.18z"/>
		<path d="M20.88,25.74c2.95,2.33,5.33,4,4.33,8.27c-0.51,2.17,1.43,4.91,2.47,8.03c2.27-2,3.61-3.18,5.24-4.62
			c2.63,2.88,5.25,5.75,8.16,8.93c-2.65,2.47-5.62,5.23-8.61,8.02C19.59,44.5,15.88,35.63,20.88,25.74z"/>
		<path d="M28.74,77.02c0,4.08,0,7.83,0,11.58C15,91.55,2.51,87.84,0.11,77.19c3.45-0.63,6.33-1.04,8.78,2.78
			c1.15,1.8,4.41,2.24,7.12,3.47c0.33-2.58,0.55-4.33,0.82-6.42C20.75,77.02,24.6,77.02,28.74,77.02z"/>
		<path d="M12.15,134.12c2.48-2.91,4.08-5.55,8.58-4.44c2.18,0.54,4.98-1.47,8.01-2.49c-1.96-2.2-3.16-3.54-4.71-5.28
			c2.93-2.59,5.83-5.15,8.88-7.84c2.57,2.55,5.43,5.4,8.28,8.23C30.73,135.25,22.67,138.65,12.15,134.12z"/>
		<path d="M114.79,38.96c11.75-13.45,19.15-16.5,28.78-11.67c-2.24,2.45-3.29,5.73-8.09,4.23c-2.09-0.66-5.02,1.38-8.15,2.37
			c1.92,2.31,3.15,3.79,4.23,5.08c-2.74,3.05-5.34,5.94-8.07,8.98C120.47,44.83,117.74,42.01,114.79,38.96z"/>
		<path d="M70.45,132.01c4.11,0,8,0,11.88,0c2.36,14.71-0.59,26.08-11.86,28.33c-0.23-3.34-1.31-6.34,2.99-8.6
			c1.85-0.97,2.36-4.48,3.72-7.35c-2.97-0.41-4.72-0.64-6.73-0.92C70.45,139.69,70.45,135.98,70.45,132.01z"/>
		<path d="M135.29,135.57c-3.11-2.27-5.48-4.12-4.41-8.56c0.49-2.06-1.41-4.7-2.47-7.76c-2.31,1.97-3.76,3.2-5.23,4.45
			c-2.75-2.82-5.38-5.52-8.06-8.26c2.82-2.62,5.77-5.37,8.78-8.17C136.34,116.67,139.99,125.19,135.29,135.57z"/>
	</g>
</g>
</svg>
